# xmcd
#
# Track frame offsets:
# 150
# 17481
# 44841
# 62881
# 89132
# 106633
# 125196
# 147554
# 169046
# 181816
# 201790
# 220416
# 239185
#
# Disc length: 3419 seconds
#
#
# Revision: 0
# Processed by: cddbd v1.5PL3 Copyright (c) Steve Scherf et al.
# Submitted via: FreeRIP 2.53 
#
DISCID=cd0d590d
DTITLE=Womack, Lee Ann - Something Worth Leaving Behind
DYEAR=1900
DGENRE=
TTITLE0=Something Worth Leaving Behind
TTITLE1=I Saw Your Light
TTITLE2=When You Gonna Run To
TTITLE3=Talk To Me
TTITLE4=Forever Everyday
TTITLE5=Orphan Train
TTITLE6=I Need You
TTITLE7=You Should've Lied
TTITLE8=He'll Be Back
TTITLE9=Surrender
TTITLE10=Blame It On Me
TTITLE11=Closing The Memory Down
TTITLE12=Something Worth Leaving Behind
EXTD=
EXTT0=
EXTT1=
EXTT2=
EXTT3=
EXTT4=
EXTT5=
EXTT6=
EXTT7=
EXTT8=
EXTT9=
EXTT10=
EXTT11=
EXTT12=
PLAYORDER=
